<?xml version="1.0" encoding="UTF-8"?>
<svg width="645px" height="645px" viewBox="0 0 645 645" version="1.1" xmlns="http://www.w3.org/2000/svg" xmlns:xlink="http://www.w3.org/1999/xlink">
    <title>Combined Shape</title>
    <g id="Base" stroke="none" stroke-width="1" fill="none" fill-rule="evenodd">
        <g id="Desktop-HD" transform="translate(-456.000000, -190.000000)" stroke="#979797">
            <path d="M778.5,191 C956.059547,191 1100,334.940453 1100,512.5 C1100,690.059547 956.059547,834 778.5,834 C600.940453,834 457,690.059547 457,512.5 C457,334.940453 600.940453,191 778.5,191 Z M778.5,225 C619.718134,225 491,353.718134 491,512.5 C491,671.281866 619.718134,800 778.5,800 C937.281866,800 1066,671.281866 1066,512.5 C1066,353.718134 937.281866,225 778.5,225 Z" id="Combined-Shape"></path>
            <path d="M778.5,262 C920.713323,262 1036,377.286677 1036,519.5 C1036,661.713323 920.713323,777 778.5,777 C636.286677,777 521,661.713323 521,519.5 C521,377.286677 636.286677,262 778.5,262 Z M779,290 C651.974508,290 549,392.974508 549,520 C549,647.025492 651.974508,750 779,750 C906.025492,750 1009,647.025492 1009,520 C1009,392.974508 906.025492,290 779,290 Z" id="Combined-Shape"></path>
            <path d="M779,367 C863.499567,367 932,435.500433 932,520 C932,604.499567 863.499567,673 779,673 C694.500433,673 626,604.499567 626,520 C626,435.500433 694.500433,367 779,367 Z M780,384 C704.336989,384 643,445.336989 643,521 C643,596.663011 704.336989,658 780,658 C855.663011,658 917,596.663011 917,521 C917,445.336989 855.663011,384 780,384 Z" id="Combined-Shape"></path>
        </g>
    </g>
</svg>